fd_1_states
version=1
nRows=27
nColumns=17
inDegrees=yes

# SIMM Motion File Header:
name fd_1_states
datacolumns 17
datarows 27
otherdata 1
range 0.488537 0.500055
endheader
time	/jointset/r_shoulder/r_shoulder_elev/value	/jointset/r_shoulder/r_shoulder_elev/speed	/jointset/r_elbow/r_elbow_flex/value	/jointset/r_elbow/r_elbow_flex/speed	/forceset/TRIlong/activation	/forceset/TRIlong/fiber_length	/forceset/TRIlat/activation	/forceset/TRIlat/fiber_length	/forceset/TRImed/activation	/forceset/TRImed/fiber_length	/forceset/BIClong/activation	/forceset/BIClong/fiber_length	/forceset/BICshort/activation	/forceset/BICshort/fiber_length	/forceset/BRA/activation	/forceset/BRA/fiber_length
      0.488537	     -0.009705	     -0.974000	    136.655000	    307.554903	      0.024362	      0.184847	      0.366337	      0.118279	      0.359369	      0.113369	      0.956671	      0.058653	      0.561884	      0.058109	      0.545465	      0.049051
      0.488899	     -0.010084	     -1.122433	    136.766195	    306.546258	      0.024341	      0.184885	      0.364836	      0.118320	      0.357911	      0.113409	      0.957474	      0.058584	      0.555360	      0.058058	      0.539254	      0.049016
      0.489281	     -0.010545	     -1.294404	    136.883138	    305.291041	      0.024319	      0.184919	      0.363270	      0.118363	      0.356390	      0.113452	      0.958305	      0.058511	      0.548609	      0.058004	      0.532823	      0.048978
      0.489664	     -0.011076	     -1.486375	    136.999564	    303.838258	      0.024297	      0.184962	      0.361723	      0.118406	      0.354887	      0.113495	      0.959119	      0.058439	      0.541994	      0.057950	      0.526519	      0.048941
      0.489780	     -0.011252	     -1.547040	    137.034794	    303.360224	      0.024290	      0.184970	      0.361257	      0.118419	      0.354434	      0.113508	      0.959363	      0.058417	      0.540011	      0.057934	      0.524629	      0.048930
      0.489866	     -0.011387	     -1.593589	    137.060894	    302.993650	      0.024285	      0.184977	      0.360913	      0.118429	      0.354099	      0.113517	      0.959543	      0.058401	      0.538548	      0.057922	      0.523234	      0.048921
      0.489970	     -0.011556	     -1.651332	    137.092393	    302.537409	      0.024279	      0.184987	      0.360497	      0.118440	      0.353696	      0.113529	      0.959760	      0.058381	      0.536789	      0.057907	      0.521557	      0.048911
      0.489991	     -0.011591	     -1.663473	    137.098906	    302.441189	      0.024278	      0.184989	      0.360412	      0.118443	      0.353613	      0.113531	      0.959804	      0.058377	      0.536426	      0.057904	      0.521211	      0.048909
      0.490000	     -0.011605	     -1.668143	    137.101402	    302.404152	      0.024278	      0.184990	      0.360379	      0.118444	      0.353581	      0.113532	      0.959821	      0.058376	      0.536288	      0.057903	      0.521078	      0.048908
      0.490006	     -0.011616	     -1.671723	    137.103318	    302.375599	      0.025236	      0.184990	      0.360699	      0.118445	      0.353908	      0.113533	      0.959583	      0.058374	      0.536181	      0.057902	      0.520977	      0.048907
      0.490012	     -0.011626	     -1.675284	    137.105233	    302.346884	      0.026382	      0.184991	      0.361088	      0.118445	      0.354304	      0.113533	      0.959294	      0.058373	      0.536074	      0.057901	      0.520875	      0.048907
      0.490044	     -0.011680	     -1.692857	    137.114809	    302.200662	      0.032037	      0.184991	      0.363025	      0.118449	      0.356282	      0.113537	      0.957854	      0.058367	      0.535542	      0.057897	      0.520367	      0.048904
      0.490202	     -0.011955	     -1.776164	    137.162614	    301.400816	      0.058652	      0.184990	      0.372547	      0.118464	      0.365995	      0.113552	      0.950708	      0.058338	      0.532892	      0.057875	      0.517840	      0.048888
      0.490623	     -0.012744	     -1.973563	    137.288783	    298.681528	      0.119067	      0.184970	      0.396568	      0.118494	      0.390479	      0.113581	      0.932191	      0.058263	      0.525963	      0.057816	      0.511230	      0.048847
      0.491142	     -0.013827	     -2.196077	    137.442802	    294.046028	      0.179993	      0.184935	      0.424023	      0.118522	      0.418425	      0.113609	      0.910170	      0.058175	      0.517605	      0.057744	      0.503252	      0.048797
      0.491827	     -0.015430	     -2.487041	    137.641454	    285.696680	      0.245696	      0.184888	      0.457013	      0.118550	      0.451960	      0.113637	      0.882502	      0.058067	      0.506916	      0.057651	      0.493043	      0.048732
      0.492716	     -0.017818	     -2.890476	    137.889154	    271.015971	      0.315053	      0.184836	      0.495325	      0.118580	      0.490848	      0.113666	      0.848724	      0.057937	      0.493576	      0.057532	      0.480291	      0.048648
      0.493863	     -0.021445	     -3.434058	    138.186279	    245.733615	      0.387399	      0.184780	      0.538723	      0.118612	      0.534838	      0.113699	      0.808324	      0.057787	      0.477186	      0.057383	      0.464608	      0.048545
      0.495335	     -0.026997	     -4.091170	    138.518104	    203.228013	      0.461732	      0.184721	      0.586560	      0.118648	      0.583261	      0.113736	      0.761153	      0.057619	      0.457421	      0.057204	      0.445672	      0.048424
      0.497213	     -0.035272	     -4.642106	    138.836957	    133.628132	      0.536792	      0.184660	      0.637800	      0.118685	      0.635064	      0.113776	      0.707504	      0.057444	      0.434076	      0.057002	      0.423274	      0.048293
      0.499595	     -0.046192	     -4.247670	    139.028198	     23.074735	      0.611087	      0.184587	      0.691058	      0.118719	      0.688847	      0.113812	      0.648170	      0.057286	      0.407116	      0.056808	      0.397364	      0.048181
      0.499779	     -0.046964	     -4.138216	    139.031575	     13.598381	      0.616094	      0.184581	      0.694730	      0.118720	      0.692553	      0.113813	      0.643938	      0.057277	      0.405145	      0.056797	      0.395467	      0.048175
      0.499900	     -0.047459	     -4.058784	    139.032838	      7.316021	      0.619329	      0.184577	      0.697108	      0.118721	      0.694953	      0.113814	      0.641187	      0.057271	      0.403861	      0.056789	      0.394232	      0.048172
      0.499983	     -0.047794	     -4.000363	    139.033266	      2.952297	      0.621538	      0.184574	      0.698734	      0.118722	      0.696594	      0.113815	      0.639302	      0.057268	      0.402979	      0.056784	      0.393383	      0.048169
      0.500007	     -0.047890	     -3.983074	    139.033321	      1.696266	      0.622022	      0.184573	      0.699198	      0.118722	      0.697062	      0.113815	      0.638763	      0.057267	      0.402727	      0.056783	      0.393140	      0.048169
      0.500031	     -0.047985	     -3.965922	    139.033347	      0.441387	      0.621551	      0.184572	      0.699661	      0.118723	      0.697530	      0.113816	      0.638224	      0.057266	      0.402474	      0.056782	      0.392898	      0.048168
      0.500055	     -0.048079	     -3.949045	    139.033342	     -0.811180	      0.621036	      0.184571	      0.700124	      0.118723	      0.697996	      0.113816	      0.637687	      0.057265	      0.402222	      0.056780	      0.392655	      0.048167
